<?xml version="1.0"?>
<svg xmlns="http://www.w3.org/2000/svg" viewBox="0 0 128 128" width="512" height="512"><path d="M123.4,109.348h-9V55.822a7.008,7.008,0,0,0-7-7H95.855V35.882l6.568-4.535a1,1,0,0,0,.432-.823V21.256a5.292,5.292,0,1,0-2,0V30l-6.569,4.536a1,1,0,0,0-.431.822V48.822h-15v-5.94l6.568-4.535a1,1,0,0,0,.432-.823V28.256a5.292,5.292,0,1,0-2,0V37l-6.569,4.536a1,1,0,0,0-.431.822v6.465H67V23.256a5.292,5.292,0,1,0-2,0V48.822H55.146V42.357a1,1,0,0,0-.432-.822L48.146,37V28.256a5.291,5.291,0,1,0-2,0v9.268a1,1,0,0,0,.431.823l6.569,4.535v5.94h-15V35.357a1,1,0,0,0-.432-.822L31.146,30V21.256a5.292,5.292,0,1,0-2,0v9.268a1,1,0,0,0,.431.823l6.569,4.535v12.94H24.6a7.008,7.008,0,0,0-7,7v53.526h-9a1,1,0,0,0-1,1v3.933a6.952,6.952,0,0,0,6.945,6.945h102.9a6.954,6.954,0,0,0,6.948-6.945v-3.933A1,1,0,0,0,123.4,109.348Z" fill="#e6e7e8"/><path d="M109.4,106.348V51.822a6,6,0,0,0-6-6H20.6a6,6,0,0,0-6,6v54.526Z" fill="#6dc9f7"/><path d="M103.4,45.822H20.6a6,6,0,0,0-6,6v3a6,6,0,0,1,6-6h82.8a6,6,0,0,1,6,6v-3A6,6,0,0,0,103.4,45.822Z" fill="#fff"/><path d="M102.372,106.348V56.659a2,2,0,0,0-2-2H23.628a2,2,0,0,0-2,2v49.689Z" fill="#d4fbff"/><path d="M4.605,106.348v3.933a5.945,5.945,0,0,0,5.945,5.945h102.9a5.946,5.946,0,0,0,5.946-5.945v-3.933Z" fill="#0089ef"/><circle cx="62" cy="80.83" r="12.631" fill="#0089ef"/><path d="M83.763,83.113V78.546a1.271,1.271,0,0,0-1.271-1.271H79.419a17.694,17.694,0,0,0-2.591-6.246L79,68.853a1.272,1.272,0,0,0,0-1.8l-3.229-3.229a1.272,1.272,0,0,0-1.8,0L71.8,66a17.664,17.664,0,0,0-6.245-2.591V60.338a1.272,1.272,0,0,0-1.272-1.272H59.717a1.272,1.272,0,0,0-1.272,1.272v3.073A17.664,17.664,0,0,0,52.2,66l-2.176-2.176a1.272,1.272,0,0,0-1.8,0L45,67.055a1.272,1.272,0,0,0,0,1.8l2.176,2.176a17.694,17.694,0,0,0-2.591,6.246H41.508a1.272,1.272,0,0,0-1.272,1.271v4.567a1.273,1.273,0,0,0,1.272,1.272h3.073a17.69,17.69,0,0,0,2.591,6.245L45,92.806a1.272,1.272,0,0,0,0,1.8l3.229,3.229a1.272,1.272,0,0,0,1.8,0L52.2,95.657a17.645,17.645,0,0,0,6.245,2.591v3.073a1.271,1.271,0,0,0,1.272,1.272h4.566a1.271,1.271,0,0,0,1.272-1.272V98.248A17.645,17.645,0,0,0,71.8,95.657l2.176,2.176a1.272,1.272,0,0,0,1.8,0L79,94.6a1.272,1.272,0,0,0,0-1.8L76.828,90.63a17.69,17.69,0,0,0,2.591-6.245h3.073A1.272,1.272,0,0,0,83.763,83.113ZM62,93.46A12.631,12.631,0,1,1,74.631,80.83,12.631,12.631,0,0,1,62,93.46Z" fill="#fa759e"/><path d="M60.839,84.575a.617.617,0,0,1-.23.484.781.781,0,0,1-.528.2.691.691,0,0,1-.646-.435l-.745-1.664H54.318l-.746,1.664a.7.7,0,0,1-.273.329.731.731,0,0,1-.385.106.792.792,0,0,1-.522-.2.611.611,0,0,1-.236-.484.758.758,0,0,1,.075-.323l3.428-7.366A.8.8,0,0,1,56,76.507a.99.99,0,0,1,.981,0,.8.8,0,0,1,.342.379l3.44,7.366A.758.758,0,0,1,60.839,84.575Zm-5.975-2.659h3.279L56.5,78.227Z" fill="#fff"/><path d="M62.261,85.065a.794.794,0,0,1-.217-.59V77.209a.741.741,0,0,1,.205-.559.779.779,0,0,1,.565-.2h3.055a3.162,3.162,0,0,1,2.187.7,2.877,2.877,0,0,1,0,3.944,3.144,3.144,0,0,1-2.187.708H63.646v2.67a.751.751,0,0,1-.808.808A.78.78,0,0,1,62.261,85.065Zm3.41-4.49q1.651,0,1.652-1.441t-1.652-1.441H63.646v2.882Z" fill="#fff"/><path d="M70.459,85.059a.8.8,0,0,1-.217-.584V77.184a.747.747,0,0,1,.794-.8.8.8,0,0,1,.59.217.782.782,0,0,1,.218.578v7.291a.8.8,0,0,1-.218.584.785.785,0,0,1-.59.224A.767.767,0,0,1,70.459,85.059Z" fill="#fff"/><circle cx="62" cy="14.066" r="4.292" fill="#fa759e"/><circle cx="80.854" cy="19.066" r="4.292" fill="#fa759e"/><path d="M97.854,7.774a4.292,4.292,0,1,0,4.292,4.292A4.291,4.291,0,0,0,97.854,7.774Z" fill="#fa759e"/><circle cx="43.146" cy="19.066" r="4.292" fill="#fa759e"/><path d="M26.146,7.774a4.292,4.292,0,1,0,4.291,4.292A4.291,4.291,0,0,0,26.146,7.774Z" fill="#fa759e"/><path d="M119.4,105.348H110.4V51.822a7.008,7.008,0,0,0-7-7H91.854V31.882l6.569-4.535a1,1,0,0,0,.431-.823V17.256a5.292,5.292,0,1,0-2,0V26l-6.568,4.536a1,1,0,0,0-.432.822V44.822h-15v-5.94l6.569-4.535a1,1,0,0,0,.431-.823V24.256a5.292,5.292,0,1,0-2,0V33l-6.568,4.536a1,1,0,0,0-.432.822v6.465H63V19.256a5.292,5.292,0,1,0-2,0V44.822H51.145V38.357a1,1,0,0,0-.431-.822L44.145,33V24.256a5.291,5.291,0,1,0-2,0v9.268a1,1,0,0,0,.432.823l6.568,4.535v5.94h-15V31.357a1,1,0,0,0-.431-.822L27.145,26V17.256a5.291,5.291,0,1,0-2,0v9.268a1,1,0,0,0,.432.823l6.568,4.535v12.94H20.6a7.008,7.008,0,0,0-7,7V78.585a1,1,0,0,0,2,0V51.822a5.006,5.006,0,0,1,5-5h82.8a5.006,5.006,0,0,1,5,5v53.526h-5.028V56.659a3,3,0,0,0-3-3H23.628a3,3,0,0,0-3,3v48.689H15.6V96.335a1,1,0,0,0-2,0v9.013h-9a1,1,0,0,0-1,1v3.933a6.953,6.953,0,0,0,6.946,6.945h102.9a6.953,6.953,0,0,0,6.947-6.945v-3.933A1,1,0,0,0,119.4,105.348ZM94.562,12.065a3.292,3.292,0,1,1,3.292,3.292A3.3,3.3,0,0,1,94.562,12.065Zm-17,7a3.292,3.292,0,1,1,3.292,3.292A3.3,3.3,0,0,1,77.562,19.065Zm-18.854-5A3.292,3.292,0,1,1,62,17.357,3.3,3.3,0,0,1,58.708,14.065Zm-18.854,5a3.292,3.292,0,1,1,3.291,3.292A3.295,3.295,0,0,1,39.854,19.065Zm-17-7a3.292,3.292,0,1,1,3.291,3.292A3.294,3.294,0,0,1,22.854,12.065Zm-.226,44.594a1,1,0,0,1,1-1h76.744a1,1,0,0,1,1,1v48.689H22.628ZM118.4,110.281a4.951,4.951,0,0,1-4.947,4.945H10.55A4.951,4.951,0,0,1,5.6,110.281v-2.933H118.4Z" fill="#3a2c60"/><path d="M14.6,92.585a1,1,0,0,0,1-1V82.936a1,1,0,0,0-2,0v8.649A1,1,0,0,0,14.6,92.585Z" fill="#3a2c60"/><path d="M62,67.2A13.631,13.631,0,1,0,75.631,80.83,13.647,13.647,0,0,0,62,67.2ZM62,92.46A11.631,11.631,0,1,1,73.631,80.83,11.644,11.644,0,0,1,62,92.46Z" fill="#3a2c60"/><path d="M82.492,76.274H80.218a18.58,18.58,0,0,0-2.118-5.1l1.611-1.611a2.275,2.275,0,0,0,0-3.212L76.482,63.12a2.324,2.324,0,0,0-3.212,0L71.658,64.73a18.593,18.593,0,0,0-5.1-2.118V60.338a2.274,2.274,0,0,0-2.272-2.272H59.717a2.274,2.274,0,0,0-2.272,2.272v2.274a18.58,18.58,0,0,0-5.1,2.118l-1.611-1.61a2.323,2.323,0,0,0-3.212,0l-3.23,3.23a2.275,2.275,0,0,0,0,3.212l1.611,1.61a18.58,18.58,0,0,0-2.118,5.1H41.508a2.274,2.274,0,0,0-2.272,2.272v4.567a2.274,2.274,0,0,0,2.272,2.272h2.274a18.568,18.568,0,0,0,2.118,5.1L44.289,92.1a2.275,2.275,0,0,0,0,3.212l3.229,3.229a2.325,2.325,0,0,0,3.212,0l1.612-1.611a18.519,18.519,0,0,0,5.1,2.118v2.274a2.274,2.274,0,0,0,2.272,2.272h4.566a2.274,2.274,0,0,0,2.272-2.272V99.047a18.532,18.532,0,0,0,5.1-2.118l1.611,1.611a2.326,2.326,0,0,0,3.212,0l3.23-3.229a2.275,2.275,0,0,0,0-3.212L78.1,90.488a18.578,18.578,0,0,0,2.117-5.1h2.274a2.274,2.274,0,0,0,2.272-2.272V78.546A2.274,2.274,0,0,0,82.492,76.274Zm.272,6.839a.272.272,0,0,1-.272.272H79.419a1,1,0,0,0-.981.8,16.618,16.618,0,0,1-2.444,5.892,1,1,0,0,0,.127,1.259L78.3,93.512a.275.275,0,0,1,0,.385l-3.231,3.229a.235.235,0,0,1-.382,0L72.507,94.95a1,1,0,0,0-1.259-.126,16.6,16.6,0,0,1-5.893,2.444,1,1,0,0,0-.8.98v3.073a.272.272,0,0,1-.272.272H59.717a.272.272,0,0,1-.272-.272V98.248a1,1,0,0,0-.8-.98,16.6,16.6,0,0,1-5.893-2.444,1,1,0,0,0-1.259.126l-2.178,2.176a.234.234,0,0,1-.382,0L45.7,93.9a.273.273,0,0,1,0-.384l2.177-2.176a1,1,0,0,0,.127-1.259,16.6,16.6,0,0,1-2.445-5.892,1,1,0,0,0-.981-.8H41.508a.272.272,0,0,1-.272-.272V78.546a.272.272,0,0,1,.272-.272h3.073a1,1,0,0,0,.981-.8,16.579,16.579,0,0,1,2.445-5.892,1,1,0,0,0-.127-1.26L45.7,68.147a.275.275,0,0,1,0-.385l3.231-3.229a.234.234,0,0,1,.382,0l2.177,2.176a1,1,0,0,0,1.259.126,16.623,16.623,0,0,1,5.893-2.444,1,1,0,0,0,.8-.98V60.338a.272.272,0,0,1,.272-.272h4.566a.272.272,0,0,1,.272.272v3.073a1,1,0,0,0,.8.98,16.623,16.623,0,0,1,5.893,2.444,1,1,0,0,0,1.259-.126l2.178-2.176a.235.235,0,0,1,.382,0l3.23,3.229a.273.273,0,0,1,0,.384L76.12,70.322a1,1,0,0,0-.127,1.26,16.579,16.579,0,0,1,2.445,5.892,1,1,0,0,0,.981.8h3.073a.272.272,0,0,1,.272.272Z" fill="#3a2c60"/></svg>
