<svg enable-background="new 0 0 256 256" height="512" viewBox="0 0 256 256" width="512" xmlns="http://www.w3.org/2000/svg"><g id="Layer_43"><g><g><g><g><path d="m183.042 41.11h-2.947c-.431 0-.81-.289-.919-.706-.461-1.764-1.16-3.432-2.059-4.968-.218-.372-.155-.845.15-1.15l2.085-2.085c.372-.372.372-.976 0-1.348l-4.761-4.761c-.372-.372-.976-.372-1.348 0l-2.085 2.085c-.305.305-.778.368-1.15.15-1.536-.9-3.204-1.598-4.968-2.059-.417-.109-.706-.488-.706-.919v-2.947c0-.527-.427-.953-.953-.953h-6.733c-.526 0-.953.427-.953.953v2.947c0 .431-.289.81-.706.919-1.764.461-3.432 1.16-4.968 2.059-.372.218-.845.155-1.15-.15l-2.085-2.085c-.372-.372-.976-.372-1.348 0l-4.761 4.761c-.372.372-.372.976 0 1.348l2.085 2.085c.305.305.368.778.15 1.15-.9 1.536-1.598 3.204-2.059 4.968-.109.417-.488.706-.919.706h-2.947c-.527 0-.953.427-.953.953v6.733c0 .526.427.953.953.953h2.947c.431 0 .81.289.919.706.461 1.764 1.16 3.432 2.059 4.968.218.372.155.845-.15 1.15l-2.085 2.085c-.372.372-.372.976 0 1.348l4.761 4.761c.372.372.976.372 1.348 0l2.085-2.085c.305-.305.778-.368 1.15-.15 1.536.9 3.204 1.598 4.968 2.059.417.109.706.488.706.919v2.947c0 .527.427.953.953.953h6.733c.526 0 .953-.427.953-.953v-2.947c0-.431.289-.81.706-.919 1.764-.461 3.432-1.16 4.968-2.059.372-.218.845-.155 1.15.15l2.085 2.085c.372.372.976.372 1.348 0l4.761-4.761c.372-.372.372-.976 0-1.348l-2.085-2.085c-.305-.305-.368-.778-.15-1.15.9-1.536 1.598-3.204 2.059-4.968.109-.417.488-.706.919-.706h2.947c.526 0 .953-.427.953-.953v-6.733c0-.526-.427-.953-.953-.953zm-23.029 15.541c-6.197 0-11.221-5.024-11.221-11.221s5.024-11.221 11.221-11.221 11.221 5.024 11.221 11.221-5.024 11.221-11.221 11.221z" fill="#fcdd86"/></g></g></g><g><g><g><path d="m164.541 67.381h-.208v1.078c0 .527-.427.953-.953.953h-6.733c-.526 0-.953-.427-.953-.953v-2.947c0-.431-.289-.81-.706-.919-1.764-.461-3.432-1.16-4.968-2.06-.372-.218-.845-.155-1.15.15l-2.085 2.085c-.372.372-.976.372-1.348 0l-.81-.81c2.003 2.657 3.204 5.953 3.204 9.537 0 8.771-7.11 15.881-15.881 15.881s-15.881-7.11-15.881-15.881 7.11-15.881 15.881-15.881c3.584 0 6.88 1.202 9.537 3.204l-.811-.811c-.372-.372-.372-.976 0-1.348l2.085-2.085c.305-.305.368-.778.15-1.15-.9-1.536-1.598-3.204-2.059-4.968-.109-.417-.488-.706-.919-.706h-2.947c-.527 0-.953-.427-.953-.953v-6.733c0-.526.427-.953.953-.953h1.078v-.208c0-.745-.604-1.349-1.349-1.349h-9.529c-.745 0-1.349.604-1.349 1.349v4.171c0 .61-.409 1.146-.999 1.301-2.497.653-4.857 1.641-7.031 2.915-.527.309-1.196.22-1.628-.212l-2.951-2.951c-.527-.527-1.381-.527-1.908 0l-6.738 6.738c-.527.527-.527 1.381 0 1.908l2.951 2.951c.432.432.521 1.101.212 1.628-1.273 2.174-2.262 4.535-2.915 7.031-.154.59-.691.999-1.301.999h-4.171c-.745 0-1.349.604-1.349 1.349v9.529c0 .745.604 1.349 1.349 1.349h4.171c.61 0 1.146.409 1.301.999.653 2.497 1.641 4.857 2.915 7.031.309.527.22 1.196-.212 1.628l-2.951 2.951c-.527.527-.527 1.381 0 1.908l6.738 6.738c.527.527 1.381.527 1.908 0l2.951-2.951c.432-.432 1.101-.521 1.628-.212 2.174 1.273 4.535 2.262 7.031 2.915.59.154.999.691.999 1.301v4.171c0 .745.604 1.349 1.349 1.349h9.529c.745 0 1.349-.604 1.349-1.349v-4.171c0-.61.409-1.146.999-1.301 2.497-.653 4.857-1.641 7.032-2.915.527-.309 1.196-.219 1.628.212l2.951 2.951c.527.527 1.381.527 1.908 0l6.738-6.738c.527-.527.527-1.381 0-1.908l-2.951-2.951c-.432-.432-.521-1.101-.212-1.628 1.273-2.174 2.262-4.534 2.915-7.031.154-.59.691-.999 1.301-.999h4.171c.745 0 1.349-.604 1.349-1.349v-9.53c-.003-.745-.607-1.349-1.352-1.349z" fill="#f5c84c"/></g></g></g><g><g><g><path d="m225.663 73.788h-59.773v4.471c0 .745-.604 1.349-1.349 1.349h-4.171c-.61 0-1.146.409-1.301.999-.653 2.497-1.641 4.857-2.915 7.031-.309.527-.22 1.196.212 1.628l2.951 2.951c.527.527.527 1.381 0 1.908l-6.738 6.738c-.527.527-1.381.527-1.908 0l-2.951-2.951c-.432-.432-1.101-.521-1.628-.212-2.174 1.273-4.535 2.262-7.032 2.915-.59.154-.999.691-.999 1.301v4.171c0 .745-.604 1.349-1.349 1.349h-9.529c-.745 0-1.349-.604-1.349-1.349v-4.171c0-.61-.409-1.146-.999-1.301-2.497-.653-4.857-1.641-7.031-2.915-.527-.309-1.196-.219-1.628.212l-2.951 2.951c-.527.527-1.381.527-1.908 0l-6.738-6.738c-.527-.527-.527-1.381 0-1.908l2.951-2.951c.432-.432.521-1.101.212-1.628-1.273-2.174-2.262-4.534-2.915-7.031-.154-.59-.691-.999-1.301-.999h-4.171c-.745 0-1.349-.604-1.349-1.349v-4.471h-67.669c-4.553 0-8.279 3.725-8.279 8.279v136.737c0 4.553 3.725 8.279 8.279 8.279h195.325c4.553 0 8.279-3.725 8.279-8.279v-136.737c0-4.554-3.725-8.279-8.278-8.279z" fill="#3a70bf"/></g></g></g><g><g><path d="m228.135 85.741h-70.973c-.314.646-.646 1.282-1.008 1.899-.309.527-.22 1.196.212 1.628l2.951 2.951c.527.527.527 1.381 0 1.908l-6.738 6.738c-.527.527-1.381.527-1.908 0l-2.951-2.951c-.432-.432-1.101-.521-1.628-.212-2.174 1.273-4.535 2.262-7.032 2.915-.59.154-.999.691-.999 1.301v4.171c0 .745-.604 1.349-1.349 1.349h-9.529c-.745 0-1.349-.604-1.349-1.349v-4.171c0-.61-.409-1.146-.999-1.301-2.497-.653-4.857-1.641-7.031-2.915-.527-.309-1.196-.219-1.628.212l-2.951 2.951c-.527.527-1.381.527-1.908 0l-6.738-6.738c-.527-.527-.527-1.381 0-1.908l2.951-2.951c.432-.432.521-1.101.212-1.628-.361-.617-.693-1.253-1.008-1.899h-78.869c-3.194 0-5.806 2.613-5.806 5.806v117.084c0 3.193 2.613 5.806 5.806 5.806h200.27c3.194 0 5.806-2.613 5.806-5.806v-117.084c0-3.194-2.612-5.806-5.806-5.806z" fill="#edf4fc"/></g></g><g><g><path d="m22.059 202.485v6.146c0 3.194 2.613 5.806 5.806 5.806h200.27c3.194 0 5.806-2.613 5.806-5.806v-6.146z" fill="#5290db"/></g></g><g><g><path d="m41.617 202.485h-19.558v6.146c0 3.194 2.613 5.806 5.806 5.806h13.752z" fill="#fcdd86"/></g></g><g><g><g><path d="m226.145 229.568c-1.314 0-2.416-1.025-2.494-2.354-.08-1.378.973-2.561 2.351-2.641 3.051-.178 5.44-2.712 5.44-5.769v-136.737c0-3.187-2.592-5.779-5.778-5.779h-58.914c-1.381 0-2.5-1.119-2.5-2.5s1.119-2.5 2.5-2.5h58.913c5.943 0 10.778 4.835 10.778 10.779v136.737c0 5.702-4.458 10.429-10.149 10.76-.05.003-.099.004-.147.004z"/></g></g><g><g><path d="m30.224 229.582c-.011 0-.023 0-.035 0-5.862-.081-10.63-4.915-10.63-10.778v-136.737c0-5.943 4.835-10.779 10.779-10.779h66.955c1.381 0 2.5 1.119 2.5 2.5s-1.119 2.5-2.5 2.5h-66.956c-3.187 0-5.779 2.592-5.779 5.779v136.737c0 3.143 2.557 5.735 5.699 5.778 1.38.019 2.484 1.154 2.466 2.534-.019 1.369-1.135 2.466-2.499 2.466z"/></g></g></g><g><g><g><path d="m22.059 94.047c-1.381 0-2.5-1.119-2.5-2.5 0-4.58 3.726-8.306 8.306-8.306h78.073c1.381 0 2.5 1.119 2.5 2.5s-1.119 2.5-2.5 2.5h-78.073c-1.823 0-3.306 1.483-3.306 3.306 0 1.381-1.12 2.5-2.5 2.5z"/></g></g><g><g><path d="m233.941 94.047c-1.381 0-2.5-1.119-2.5-2.5 0-1.823-1.483-3.306-3.307-3.306h-69.947c-1.381 0-2.5-1.119-2.5-2.5s1.119-2.5 2.5-2.5h69.947c4.58 0 8.307 3.726 8.307 8.306 0 1.381-1.119 2.5-2.5 2.5z"/></g></g><g><g><path d="m228.135 216.938h-200.27c-4.58 0-8.306-3.726-8.306-8.306 0-1.381 1.119-2.5 2.5-2.5s2.5 1.119 2.5 2.5c0 1.823 1.483 3.306 3.306 3.306h200.27c1.823 0 3.307-1.483 3.307-3.306 0-1.381 1.119-2.5 2.5-2.5s2.5 1.119 2.5 2.5c-.001 4.579-3.727 8.306-8.307 8.306z"/></g></g></g><g><g><path d="m169.849 187.242h-83.698c-5.637 0-10.249-4.612-10.249-10.249v-47.387c0-5.637 4.612-10.249 10.249-10.249h83.697c5.637 0 10.249 4.612 10.249 10.249v47.387c0 5.637-4.612 10.249-10.248 10.249z" fill="#fc657e"/></g></g><g><g><g><path d="m160.384 133.235h-4.58c-1.284 0-2.324 1.04-2.324 2.324v35.481c0 1.284 1.04 2.324 2.324 2.324h4.58c1.284 0 2.324-1.04 2.324-2.324v-35.481c0-1.283-1.041-2.324-2.324-2.324z" fill="#edf4fc"/></g></g><g><g><path d="m149.043 136.711c-2.45-2.306-6.05-3.475-10.702-3.475h-11.273c-1.284 0-2.324 1.04-2.324 2.324v35.203c-.022-.182-.065-.363-.131-.539l-13.085-34.827c-.34-.906-1.207-1.506-2.175-1.506h-5.184c-.967 0-1.833.599-2.174 1.503l-13.137 34.826c-.269.714-.171 1.515.263 2.142.434.628 1.148 1.002 1.911 1.002h4.932c.979 0 1.852-.613 2.185-1.533l2.415-6.671h12.341l2.415 6.671c.333.92 1.206 1.533 2.185 1.533h4.932c.762 0 1.476-.374 1.91-1.001.271-.391.394-.849.397-1.312.006 1.278 1.043 2.313 2.323 2.313h4.58c1.284 0 2.324-1.04 2.324-2.324v-11.969h4.37c4.497 0 8.049-1.139 10.559-3.385 2.584-2.313 3.894-5.512 3.894-9.507-.001-3.939-1.262-7.124-3.751-9.468zm-45.487 20.229 3.178-8.772 3.179 8.772zm38.787-7.457c-.761.73-2.284 1.115-4.406 1.115h-3.967v-8.891h3.967c2.128 0 3.655.381 4.418 1.102.747.706 1.11 1.808 1.11 3.369 0 1.501-.366 2.582-1.122 3.305z" fill="#edf4fc"/></g></g></g><g><g><path d="m250.528 227.082h-245.056c-1.641 0-2.972 1.331-2.972 2.972 0 8.26 6.696 17.13 14.956 17.13h221.087c8.26 0 14.956-8.869 14.956-17.13.001-1.641-1.33-2.972-2.971-2.972z" fill="#edf4fc"/></g></g><g><g><path d="m158.19 236.318h-60.38c-4.03 0-7.297-3.267-7.297-7.297v-1.939h74.974v1.939c0 4.03-3.267 7.297-7.297 7.297z" fill="#c7d7e5"/></g></g><g><g><path d="m238.544 249.684h-221.087c-9.992 0-17.457-10.363-17.457-19.629 0-3.018 2.455-5.472 5.472-5.472h245.055c3.018 0 5.473 2.455 5.473 5.472 0 9.266-7.465 19.629-17.456 19.629zm-233.072-20.101c-.26 0-.472.212-.472.472 0 6.765 5.441 14.629 12.457 14.629h221.087c7.015 0 12.456-7.864 12.456-14.629 0-.26-.212-.472-.473-.472z"/></g></g><g><g><path d="m158.19 238.818h-60.38c-5.402 0-9.797-4.395-9.797-9.797v-1.146c0-1.381 1.119-2.5 2.5-2.5s2.5 1.119 2.5 2.5v1.146c0 2.645 2.152 4.797 4.797 4.797h60.38c2.645 0 4.797-2.152 4.797-4.797v-1.24c0-1.381 1.119-2.5 2.5-2.5s2.5 1.119 2.5 2.5v1.24c0 5.402-4.394 9.797-9.797 9.797z"/></g></g><g><g><path d="m233.25 204.985h-210.375c-1.381 0-2.5-1.119-2.5-2.5s1.119-2.5 2.5-2.5h210.375c1.381 0 2.5 1.119 2.5 2.5s-1.119 2.5-2.5 2.5z"/></g></g><g><g><path d="m41.617 216.646c-1.381 0-2.5-1.119-2.5-2.5v-11.24c0-1.381 1.119-2.5 2.5-2.5s2.5 1.119 2.5 2.5v11.24c0 1.381-1.119 2.5-2.5 2.5z"/></g></g><g><g><g><path d="m160.384 175.864h-4.579c-2.66 0-4.824-2.164-4.824-4.824v-35.481c0-2.66 2.164-4.824 4.824-4.824h4.579c2.66 0 4.824 2.164 4.824 4.824v35.481c0 2.66-2.164 4.824-4.824 4.824zm-4.404-5h4.228v-35.129h-4.228zm4.404-35.129h.01z"/></g></g><g><g><path d="m131.646 175.864h-4.58c-.836 0-1.625-.215-2.313-.593-.701.384-1.496.593-2.317.593h-4.932c-2.024 0-3.847-1.279-4.536-3.183l-1.817-5.021h-8.833l-1.818 5.021c-.688 1.903-2.51 3.182-4.535 3.182h-4.933c-1.583 0-3.066-.777-3.967-2.08-.9-1.302-1.105-2.963-.546-4.446l13.135-34.828c.705-1.867 2.519-3.121 4.514-3.121h5.184c1.999 0 3.813 1.257 4.516 3.127l8.375 22.292v-21.25c0-2.66 2.164-4.824 4.824-4.824h11.273c5.31 0 9.487 1.398 12.416 4.154.001 0 .001.001.001.001 3.01 2.835 4.536 6.633 4.536 11.288 0 4.737-1.59 8.563-4.727 11.37-2.982 2.669-7.096 4.023-12.227 4.023h-1.869v9.469c.001 2.662-2.163 4.826-4.824 4.826zm-4.405-5h4.229v-11.793c0-1.381 1.119-2.5 2.5-2.5h4.369c3.862 0 6.854-.925 8.893-2.749 2.06-1.844 3.061-4.344 3.061-7.644 0-3.267-.97-5.769-2.963-7.647-1.972-1.855-4.996-2.796-8.99-2.796h-11.097v35.026c0 .035 0 .069-.002.103zm-9.613 0h4.559l-12.957-34.474h-4.941l-13.002 34.475h4.554l2.373-6.555c.358-.99 1.298-1.649 2.351-1.649h12.341c1.053 0 1.993.659 2.351 1.649zm-7.714-11.424h-6.357c-.815 0-1.579-.397-2.047-1.064s-.581-1.521-.304-2.287l3.178-8.772c.358-.989 1.298-1.648 2.351-1.648s1.992.659 2.351 1.648l3.179 8.772c.277.767.164 1.62-.304 2.288-.468.666-1.232 1.063-2.047 1.063zm28.023-6.341h-3.967c-1.381 0-2.5-1.119-2.5-2.5v-8.891c0-1.381 1.119-2.5 2.5-2.5h3.967c2.858 0 4.865.584 6.136 1.785 1.256 1.186 1.893 2.931 1.893 5.186 0 2.187-.637 3.905-1.892 5.108-1.269 1.219-3.277 1.812-6.137 1.812zm-1.466-5h1.467c1.729 0 2.517-.305 2.685-.428.299-.299.344-1.062.344-1.492 0-.917-.169-1.402-.327-1.552-.143-.107-.937-.419-2.701-.419h-1.467v3.891z"/></g></g></g><g><g><path d="m169.849 189.742h-83.698c-7.03 0-12.749-5.719-12.749-12.749v-47.387c0-7.03 5.719-12.749 12.749-12.749h83.697c7.03 0 12.749 5.719 12.749 12.749v47.387c.001 7.03-5.718 12.749-12.748 12.749zm-83.698-67.884c-4.272 0-7.749 3.476-7.749 7.749v47.387c0 4.272 3.476 7.749 7.749 7.749h83.697c4.272 0 7.749-3.476 7.749-7.749v-47.387c0-4.272-3.477-7.749-7.749-7.749z"/></g></g><g><g><g><path d="m163.379 71.912h-6.732c-1.904 0-3.453-1.549-3.453-3.453v-1.786c-1.163-.373-2.293-.841-3.379-1.4l-1.264 1.264c-1.346 1.346-3.537 1.346-4.883 0l-4.761-4.761c-.652-.651-1.013-1.52-1.012-2.443 0-.923.36-1.791 1.014-2.443l1.261-1.261c-.56-1.088-1.028-2.217-1.4-3.378h-1.785c-1.904 0-3.454-1.549-3.454-3.454v-6.732c0-1.904 1.55-3.454 3.454-3.454h1.785c.372-1.161.841-2.292 1.4-3.378l-1.263-1.263c-.652-.651-1.012-1.519-1.012-2.442s.359-1.791 1.013-2.443l4.76-4.759c1.346-1.347 3.537-1.347 4.883 0l1.264 1.263c1.087-.56 2.217-1.028 3.379-1.401v-1.785c0-1.904 1.549-3.453 3.453-3.453h6.732c1.904 0 3.453 1.549 3.453 3.453v1.786c1.163.373 2.293.841 3.379 1.4l1.264-1.263c1.347-1.348 3.538-1.346 4.883 0l4.762 4.76c1.346 1.347 1.346 3.538.001 4.883l-1.265 1.264c.56 1.088 1.028 2.217 1.4 3.378h1.786c1.904 0 3.453 1.549 3.453 3.454v6.732c0 1.904-1.549 3.454-3.453 3.454h-1.786c-.372 1.161-.841 2.292-1.4 3.378l1.264 1.263c1.346 1.346 1.347 3.536.001 4.883l-4.763 4.762c-1.346 1.346-3.537 1.346-4.883 0l-1.264-1.263c-1.086.559-2.216 1.028-3.379 1.401v1.785c0 1.903-1.549 3.452-3.453 3.452zm-5.186-5h3.639v-1.4c0-1.569 1.059-2.942 2.574-3.338 1.52-.397 2.979-1.002 4.337-1.798 1.353-.791 3.07-.57 4.181.538l.992.993 2.574-2.573-.992-.992c-1.111-1.113-1.331-2.833-.537-4.185.794-1.356 1.398-2.815 1.795-4.333.397-1.517 1.771-2.574 3.339-2.574h1.4v-3.64h-1.4c-1.568 0-2.941-1.058-3.338-2.572-.397-1.521-1.002-2.979-1.798-4.34-.792-1.347-.572-3.067.537-4.179l.994-.993-2.574-2.573-.991.991c-1.111 1.11-2.832 1.332-4.183.539-1.357-.795-2.816-1.4-4.337-1.797-1.515-.396-2.573-1.768-2.573-3.337v-1.4h-3.639v1.4c0 1.569-1.059 2.942-2.574 3.338-1.52.397-2.979 1.002-4.337 1.798-1.35.792-3.072.571-4.183-.541l-.99-.99-2.573 2.573.991.992c1.111 1.113 1.331 2.833.537 4.185-.794 1.356-1.398 2.815-1.795 4.333-.397 1.517-1.771 2.574-3.339 2.574h-1.4v3.64h1.4c1.568 0 2.941 1.058 3.338 2.572.397 1.521 1.002 2.979 1.798 4.34.792 1.347.572 3.067-.537 4.179l-.993.993 2.573 2.573.992-.992c1.108-1.109 2.827-1.33 4.18-.54 1.359.796 2.818 1.401 4.339 1.799 1.515.396 2.573 1.768 2.573 3.337zm-7.554-2.463-.002.002c0-.001.001-.001.002-.002zm-8.194-4.025-.003.003c.001-.001.002-.002.003-.003zm-1.694-3.738c.001.002.002.003.003.005-.001-.002-.002-.003-.003-.005zm38.526-.005c-.002.002-.003.004-.004.005.001-.001.002-.003.004-.005zm3.765-13.071h.01zm-42.29-9.437c-.001.001-.002.003-.004.005.002-.002.003-.004.004-.005zm38.519-.005c.001.002.002.003.003.005-.001-.001-.002-.003-.003-.005zm-28.636-7.761.002.002c-.001-.001-.001-.001-.002-.002zm9.378 32.744c-7.565 0-13.721-6.155-13.721-13.721 0-7.565 6.155-13.721 13.721-13.721s13.721 6.155 13.721 13.721c-.001 7.566-6.156 13.721-13.721 13.721zm0-22.442c-4.809 0-8.721 3.912-8.721 8.721s3.912 8.721 8.721 8.721 8.721-3.912 8.721-8.721c-.001-4.809-3.913-8.721-8.721-8.721z"/></g></g></g><g><g><g><path d="m131.947 91.876c-10.135 0-18.381-8.246-18.381-18.381s8.246-18.381 18.381-18.381c4.005 0 7.823 1.282 11.043 3.708.87.656 1.19 1.77.879 2.752.984-.312 2.099.01 2.753.879 2.425 3.22 3.707 7.038 3.707 11.042 0 10.135-8.246 18.381-18.382 18.381zm0-31.763c-7.378 0-13.381 6.003-13.381 13.381s6.002 13.381 13.381 13.381 13.382-6.003 13.382-13.381c0-2.909-.934-5.687-2.701-8.033-.506-.672-.622-1.516-.386-2.261-.744.236-1.588.12-2.262-.386-2.344-1.767-5.123-2.701-8.033-2.701z"/></g></g><g><g><path d="m136.712 109.937h-9.529c-2.123 0-3.849-1.727-3.849-3.849v-3.294c-2.085-.612-4.101-1.447-6.011-2.492l-2.331 2.331c-1.501 1.5-3.942 1.5-5.443.001l-6.739-6.739c-1.5-1.5-1.5-3.943 0-5.443l2.331-2.331c-1.044-1.911-1.88-3.926-2.492-6.011h-3.294c-2.123 0-3.85-1.727-3.85-3.849v-9.531c0-2.123 1.727-3.849 3.85-3.849h3.294c.612-2.085 1.447-4.101 2.492-6.011l-2.331-2.331c-1.501-1.5-1.501-3.943 0-5.443l6.737-6.738c1.501-1.5 3.942-1.5 5.444-.001l2.332 2.332c1.91-1.044 3.926-1.88 6.011-2.492v-3.294c0-2.123 1.727-3.849 3.849-3.849h9.529c2.123 0 3.85 1.727 3.85 3.849 0 1.381-1.119 2.5-2.5 2.5-.966 0-1.804-.547-2.22-1.349h-7.508v3.021c0 1.748-1.178 3.277-2.865 3.719-2.244.586-4.397 1.479-6.402 2.653-1.509.882-3.424.634-4.66-.603l-2.137-2.137-5.111 5.111 2.137 2.138c1.236 1.236 1.484 3.152.603 4.658-1.175 2.006-2.067 4.159-2.654 6.401-.442 1.689-1.972 2.867-3.72 2.867h-3.021v7.228h3.021c1.748 0 3.277 1.178 3.72 2.865.586 2.244 1.479 4.397 2.653 6.402.882 1.507.634 3.423-.602 4.659l-2.137 2.138 5.111 5.111 2.138-2.138c1.234-1.238 3.151-1.484 4.659-.602 2.005 1.174 4.158 2.067 6.4 2.653 1.688.441 2.867 1.971 2.867 3.72v3.021h7.228v-3.021c0-1.749 1.179-3.278 2.866-3.719 2.242-.586 4.396-1.479 6.401-2.653 1.508-.884 3.423-.636 4.659.603l2.137 2.137 5.111-5.111-2.138-2.138c-1.236-1.237-1.483-3.152-.602-4.658 1.174-2.006 2.067-4.159 2.653-6.401.441-1.688 1.971-2.867 3.72-2.867h3.021v-7.507c-.802-.417-1.35-1.254-1.35-2.22 0-1.381 1.119-2.5 2.5-2.5 2.123 0 3.85 1.727 3.85 3.849v9.529c0 2.123-1.727 3.849-3.85 3.849h-3.294c-.612 2.086-1.448 4.101-2.492 6.012l2.33 2.331c.728.726 1.128 1.693 1.128 2.722s-.4 1.996-1.129 2.723l-6.736 6.737c-1.501 1.5-3.942 1.501-5.443.001l-2.332-2.332c-1.911 1.044-3.926 1.88-6.011 2.492v3.294c.001 2.119-1.726 3.846-3.849 3.846z"/></g></g></g><g><g><path d="m136.24 13.768c-3.773-.703-6.748-3.616-7.465-7.313-.036-.186-.295-.186-.331 0-.717 3.697-3.691 6.61-7.465 7.313-.189.035-.189.289 0 .324 3.774.703 6.748 3.616 7.465 7.313.036.186.295.186.331 0 .717-3.697 3.691-6.61 7.465-7.313.19-.035.19-.289 0-.324z" fill="#fc657e"/></g></g><g><g><path d="m12.89 129.41c-2.913-.542-5.209-2.792-5.762-5.645-.028-.143-.228-.143-.256 0-.554 2.854-2.85 5.103-5.762 5.645-.146.027-.146.223 0 .25 2.913.543 5.209 2.792 5.762 5.645.028.143.228.143.256 0 .554-2.854 2.85-5.103 5.762-5.645.147-.027.147-.223 0-.25z" fill="#87d147"/></g></g><g><g><path d="m244.557 189.404h1.887v-1.887c0-1.412 1.145-2.557 2.557-2.557s2.557 1.145 2.557 2.557v1.887h1.886c1.412 0 2.557 1.145 2.557 2.557s-1.145 2.557-2.557 2.557h-1.886v1.887c0 1.412-1.145 2.557-2.557 2.557s-2.557-1.145-2.557-2.557v-1.887h-1.887c-1.412 0-2.557-1.145-2.557-2.557 0-1.413 1.145-2.557 2.557-2.557z" fill="#70d6f9"/></g></g><g><g><circle cx="109.721" cy="29.693" fill="#70d6f9" r="3.377"/></g></g><g><g><circle cx="243.721" cy="169.693" fill="#f5c84c" r="3.377"/></g></g></g></g></svg>