<svg id="Capa_1" enable-background="new 0 0 512 512" height="512" viewBox="0 0 512 512" width="512" xmlns="http://www.w3.org/2000/svg"><g><path d="m226 512 15-34.947v-171.474l-15-19.579-19.421-75h-174.789l-31.79 75c0 124.072 101.928 226 226 226z" fill="#ff6b4d"/><path d="m226 286v52.5c-33.137 0-60 26.863-60 60s26.863 60 60 60v53.5c124.072 0 225-101.928 225-226l-27.947-15h-157.263z" fill="#e1e6f0"/><path d="m451 121v-60h-60c0-33.091-26.909-61-60-61s-60 27.909-60 61h-45l-15 25.737v171.473l15 27.79h52.5c0 33.137 26.863 60 60 60s60-26.863 60-60h52.5v-45c33.091 0 61-26.909 61-60s-27.909-60-61-60z" fill="#ffbe40"/><path d="m226 113.5v-52.5c-124.072 0-226 100.928-226 225h53.5c0-33.137 26.863-60 60-60s60 26.863 60 60h52.5v-52.5c33.137 0 60-26.863 60-60s-26.863-60-60-60z" fill="#59abff"/></g></svg>